# Blender v2.76 (sub 0) OBJ File: ''
# www.blender.org
mtllib prometheus.mtl
o mesh
v 0.000000 62.487999 -0.000010
v 0.000000 49.568501 -0.623808
v -1.514000 35.736099 -0.781906
v -3.354700 39.444500 -0.000006
v -4.007200 23.613400 -0.637904
v -6.836100 22.783400 -0.000004
v -1.209700 21.282101 -1.031403
v -2.857300 19.302000 -0.000003
v -1.539900 15.654600 -0.566703
v -2.525800 16.152201 -0.000003
v -1.789000 13.097300 -1.314902
v -6.597600 12.267700 -1.314902
v -7.523600 14.909800 -0.000002
v -10.327600 8.641300 -1.314901
v -12.393400 11.076200 -0.000002
v -13.177000 3.408800 -1.314901
v -15.812700 4.166500 -0.000001
v -13.073400 -4.051400 -1.314899
v -15.747900 -3.831200 0.000001
v -11.001100 -7.626000 -1.098799
v -13.936000 -8.914700 0.000001
v -16.202499 -16.782801 0.000003
v -7.416300 -6.891400 0.000001
v -10.649000 -3.492900 0.000001
v -10.309500 3.518900 -0.000001
v -6.942100 7.566300 -0.000001
v -5.839900 11.128000 -0.000002
v -2.342900 11.548900 -0.000002
v 0.000000 35.729599 -1.314906
v 0.000000 21.450399 -1.483903
v 0.000000 15.298400 -1.314903
v 1.514000 35.736099 -0.781906
v 3.354700 39.444500 -0.000006
v 6.836100 22.783400 -0.000004
v 4.007200 23.613400 -0.637904
v 2.857300 19.302000 -0.000003
v 1.209700 21.282101 -1.031403
v 2.525800 16.152201 -0.000003
v 1.539900 15.654600 -0.566703
v 1.789900 13.097300 -1.310002
v 0.000000 -0.000000 -1.246500
v -1.497500 1.812100 -0.000000
v -1.499100 6.477900 -0.000001
v 0.000000 6.478100 -1.178201
v 1.497800 6.477900 -0.000001
v 1.497500 1.812100 -0.000000
v -8.411000 0.000000 0.000000
v 9.506800 14.909800 -0.000002
v 6.597600 12.267700 -0.000002
v 5.839900 11.128000 -0.000002
v 2.342900 11.548900 -0.000002
v 0.000000 7.479900 -1.314901
v -1.499300 7.479800 -0.000001
v 1.500600 7.479800 -0.000001
v -0.000100 6.485099 -2.149101
v 2.505600 6.484400 -0.000001
v 2.508800 7.471500 -0.000001
v -0.000100 7.472000 -2.149101
v -2.507500 7.472300 -0.000001
v -2.507300 6.485200 -0.000001
v -1.497500 -1.812100 0.000000
v 0.000000 -62.487999 0.000010
v 0.000000 -49.568501 -0.623792
v 1.514000 -35.736099 -0.781894
v 3.354700 -39.444500 0.000006
v 4.007200 -23.613400 -0.637896
v 6.836100 -22.783400 0.000004
v 1.209700 -21.282101 -1.031397
v 2.857300 -19.302000 0.000003
v 1.539900 -15.654600 -0.566697
v 2.525800 -16.152201 0.000003
v 1.789000 -13.097300 -1.314898
v 6.597600 -12.267700 -1.314898
v 7.523600 -14.909800 0.000002
v 10.327600 -8.641300 -1.314899
v 12.393400 -11.076200 0.000002
v 13.177000 -3.408800 -1.314899
v 15.812700 -4.166500 0.000001
v 13.073400 4.051400 -1.314901
v 15.747900 3.831200 -0.000001
v 11.001100 7.626000 -1.098801
v 13.936000 8.914700 -0.000001
v 16.202499 16.782801 -0.000003
v 7.416300 6.891400 -0.000001
v 10.649000 3.492900 -0.000001
v 10.309500 -3.518900 0.000001
v 6.942100 -7.566300 0.000001
v 5.839900 -11.128000 0.000002
v 2.342900 -11.548900 0.000002
v 0.000000 -35.729599 -1.314894
v 0.000000 -21.450399 -1.483896
v 0.000000 -15.298400 -1.314898
v -1.514000 -35.736099 -0.781894
v -3.354700 -39.444500 0.000006
v -6.836100 -22.783400 0.000004
v -4.007200 -23.613400 -0.637896
v -2.857300 -19.302000 0.000003
v -1.209700 -21.282101 -1.031397
v -2.525800 -16.152201 0.000003
v -1.539900 -15.654600 -0.566697
v -1.789900 -13.097300 -1.309998
v 1.497500 -1.812100 0.000000
v 1.499100 -6.477900 0.000001
v 0.000000 -6.478100 -1.178199
v -1.497800 -6.477900 0.000001
v 8.411000 0.000000 0.000000
v -9.506800 -14.909800 0.000002
v -6.597600 -12.267700 0.000002
v -5.839900 -11.128000 0.000002
v -2.342900 -11.548900 0.000002
v 0.000000 -7.479900 -1.314899
v 1.499300 -7.479800 0.000001
v -1.500600 -7.479800 0.000001
v 0.000100 -6.485100 -2.149099
v -2.505600 -6.484400 0.000001
v -2.508800 -7.471500 0.000001
v 0.000100 -7.472001 -2.149099
v 2.507500 -7.472300 0.000001
v 2.507300 -6.485200 0.000001
v -1.514000 35.736099 0.781894
v 0.000000 49.568501 0.623792
v -4.007200 23.613400 0.637896
v -1.209700 21.282101 1.031397
v -1.539900 15.654600 0.566697
v -1.789000 13.097300 1.314898
v -6.597600 12.267700 1.314898
v -10.327600 8.641300 1.314899
v -13.177000 3.408800 1.314899
v -13.073400 -4.051400 1.314901
v -11.001100 -7.626000 1.098801
v 0.000000 35.729599 1.314894
v 0.000000 21.450399 1.483896
v 0.000000 15.298400 1.314898
v 1.514000 35.736099 0.781894
v 4.007200 23.613400 0.637896
v 1.209700 21.282101 1.031397
v 1.539900 15.654600 0.566697
v 1.789900 13.097300 1.309998
v 0.000000 0.000000 1.246500
v 0.000000 6.478100 1.178199
v 0.000000 7.479900 1.314899
v -0.000100 6.485100 2.149099
v -0.000100 7.472001 2.149099
v 1.514000 -35.736099 0.781906
v 0.000000 -49.568501 0.623808
v 4.007200 -23.613400 0.637904
v 1.209700 -21.282101 1.031403
v 1.539900 -15.654600 0.566703
v 1.789000 -13.097300 1.314902
v 6.597600 -12.267700 1.314902
v 10.327600 -8.641300 1.314901
v 13.177000 -3.408800 1.314901
v 13.073400 4.051400 1.314899
v 11.001100 7.626000 1.098799
v 0.000000 -35.729599 1.314906
v 0.000000 -21.450399 1.483903
v 0.000000 -15.298400 1.314903
v -1.514000 -35.736099 0.781906
v -4.007200 -23.613400 0.637904
v -1.209700 -21.282101 1.031403
v -1.539900 -15.654600 0.566703
v -1.789900 -13.097300 1.310002
v 0.000000 -6.478100 1.178201
v 0.000000 -7.479900 1.314901
v 0.000100 -6.485099 2.149101
v 0.000100 -7.472000 2.149101
vt 0.335720 0.115810
vt 0.480010 0.157560
vt 0.487190 0.193460
vt 0.288760 0.136050
vt 0.510790 0.125490
vt 0.534160 0.149740
vt 0.611420 0.133350
vt 0.628050 0.190190
vt 0.594020 0.206030
vt 0.572520 0.147350
vt 0.674580 0.232870
vt 0.644370 0.261920
vt 0.776570 0.426810
vt 0.773700 0.473410
vt 0.725060 0.487180
vt 0.725490 0.452800
vt 0.635720 0.469060
vt 0.642510 0.431090
vt 0.578240 0.424390
vt 0.599480 0.383270
vt 0.524730 0.316540
vt 0.550150 0.320490
vt 0.558860 0.362640
vt 0.538910 0.374450
vt 0.266870 0.415560
vt 0.274900 0.433040
vt 0.117110 0.487180
vt 0.430230 0.354680
vt 0.419070 0.397280
vt 0.421560 0.341620
vt 0.240240 0.568250
vt 0.203800 0.556020
vt 0.201120 0.541200
vt 0.269080 0.550860
vt 0.169850 0.532470
vt 0.258290 0.398350
vt 0.342290 0.757830
vt 0.282350 0.808720
vt 0.267270 0.791190
vt 0.310190 0.754260
vt 0.376600 0.308580
vt 0.340610 0.790080
vt 0.419350 0.826460
vt 0.158760 0.629350
vt 0.139470 0.585730
vt 0.518760 0.254830
vt 0.505870 0.277040
vt 0.491430 0.221600
vt 0.494870 0.330070
vt 0.490290 0.308740
vt 0.577220 0.267210
vt 0.589420 0.288300
vt 0.568460 0.244470
vt 0.917060 0.886280
vt 0.891880 0.881900
vt 0.892340 0.874040
vt 0.930680 0.876100
vt 0.891000 0.858990
vt 0.915350 0.850800
vt 0.929290 0.858800
vt 0.892030 0.865470
vt 0.867370 0.855190
vt 0.855970 0.863950
vt 0.868230 0.886280
vt 0.856180 0.878440
vt 0.013160 0.073520
vt 0.169740 0.084620
vt 0.578940 0.133730
vt 0.739210 0.265290
vt 0.729430 0.300880
vt 0.829760 0.265640
vt 0.826500 0.301760
vt 0.875270 0.244430
vt 0.889280 0.283100
vt 0.984130 0.312710
vt 0.871570 0.198210
vt 0.440700 0.586790
vt 0.609100 0.599570
vt 0.763220 0.629350
vt 0.480830 0.618480
vt 0.274300 0.622620
vt 0.290510 0.589800
vt 0.416820 0.326630
vt 0.476630 0.291740
vt 0.297220 0.826460
vt 0.474840 0.223700
vt 0.374130 0.752440
vn -0.262400 0.049600 -0.963700
vn -0.228400 -0.201800 -0.952400
vn -0.084000 0.397300 -0.913800
vn -0.270800 0.312100 -0.910600
vn 0.323200 0.217300 -0.921000
vn 0.445800 -0.007300 -0.895100
vn 0.346400 -0.232100 -0.908900
vn 0.104100 -0.691500 -0.714900
vn -0.331500 0.047100 -0.942300
vn -0.314500 -0.221500 -0.923100
vn 0.499200 -0.045900 -0.865300
vn 0.361200 0.292700 -0.885400
vn 0.331500 0.047100 -0.942300
vn 0.627400 0.004800 -0.778600
vn 0.233700 0.023000 -0.972000
vn -0.233700 0.023000 -0.972000
vn -0.127900 0.488100 -0.863300
vn 0.216700 -0.238700 -0.946600
vn -0.079500 -0.660200 -0.746800
vn -0.361800 0.294100 -0.884700
vn 0.000000 -0.000000 -1.000000
vn -0.820400 -0.170100 -0.545900
vn 0.819900 -0.169700 -0.546700
vn 0.645000 -0.204900 -0.736200
vn 0.006100 -1.000000 -0.007600
vn 0.008300 0.999900 -0.009400
vn -0.007800 0.999900 -0.009100
vn -0.006600 -0.999900 -0.007900
vn -0.313600 0.045500 -0.948500
vn -0.499200 -0.045900 -0.865300
vn -0.360400 0.294100 -0.885200
vn -0.375400 0.193800 -0.906400
vn -0.444500 -0.004800 -0.895800
vn -0.358800 -0.183800 -0.915200
vn -0.391400 0.112800 -0.913300
vn 0.335000 -0.297600 -0.894000
vn 0.406900 -0.273600 -0.871500
vn -0.402100 -0.037900 -0.914800
vn 0.313600 0.045500 -0.948500
vn 0.262400 0.049600 -0.963700
vn 0.228400 -0.201800 -0.952400
vn 0.314500 -0.221500 -0.923100
vn 0.402100 -0.037900 -0.914800
vn -0.627300 0.004700 -0.778800
vn 0.067500 0.379400 -0.922800
vn 0.234500 -0.155900 -0.959500
vn 0.362300 0.292600 -0.884900
vn 0.002700 -0.000000 -1.000000
vn -0.645300 -0.205500 -0.735800
vn 0.650800 -0.001100 -0.759300
vn -0.650800 -0.000100 -0.759300
vn -0.127900 -0.488100 -0.863300
vn 0.313600 -0.045500 -0.948500
vn 0.262400 -0.049600 -0.963700
vn 0.228400 0.201800 -0.952400
vn 0.499200 0.045900 -0.865300
vn 0.360400 -0.294100 -0.885200
vn 0.084000 -0.397300 -0.913800
vn 0.270800 -0.312100 -0.910600
vn 0.375400 -0.193800 -0.906400
vn 0.444500 0.004800 -0.895800
vn 0.358800 0.183800 -0.915200
vn 0.391400 -0.112800 -0.913300
vn -0.335000 0.297600 -0.894000
vn -0.323200 -0.217300 -0.921000
vn -0.445800 0.007300 -0.895100
vn -0.346400 0.232100 -0.908900
vn -0.406900 0.273600 -0.871500
vn -0.104100 0.691500 -0.714900
vn 0.331500 -0.047100 -0.942300
vn 0.314500 0.221500 -0.923100
vn 0.402100 0.037900 -0.914800
vn -0.313600 -0.045500 -0.948500
vn -0.262400 -0.049600 -0.963700
vn -0.228400 0.201800 -0.952400
vn -0.499200 0.045900 -0.865300
vn -0.361200 -0.292700 -0.885400
vn -0.331500 -0.047100 -0.942300
vn -0.314500 0.221500 -0.923100
vn -0.402100 0.037900 -0.914800
vn 0.627300 -0.004700 -0.778800
vn -0.627400 -0.004800 -0.778600
vn -0.233700 -0.023000 -0.972000
vn 0.233700 -0.023000 -0.972000
vn 0.127900 -0.488100 -0.863300
vn -0.216700 0.238700 -0.946600
vn -0.067500 -0.379400 -0.922800
vn -0.234500 0.155900 -0.959500
vn 0.079500 0.660200 -0.746800
vn -0.362300 -0.292600 -0.884900
vn 0.361800 -0.294100 -0.884700
vn -0.002700 -0.000000 -1.000000
vn 0.820400 0.170100 -0.545900
vn 0.645300 0.205500 -0.735800
vn -0.819900 0.169700 -0.546700
vn -0.645000 0.204900 -0.736200
vn -0.006100 1.000000 -0.007600
vn -0.008300 -0.999900 -0.009400
vn -0.650800 0.001100 -0.759300
vn 0.007800 -0.999900 -0.009100
vn 0.006600 0.999900 -0.007900
vn 0.650800 0.000100 -0.759300
vn 0.127900 0.488100 -0.863300
vn -0.313600 0.045500 0.948500
vn -0.228400 -0.201800 0.952400
vn -0.375400 0.193800 0.906400
vn -0.358800 -0.183800 0.915200
vn 0.335000 -0.297600 0.894000
vn 0.323200 0.217300 0.921000
vn 0.346400 -0.232100 0.908900
vn 0.406900 -0.273600 0.871500
vn 0.104100 -0.691500 0.714900
vn -0.331500 0.047100 0.942300
vn 0.262400 0.049600 0.963700
vn 0.228400 -0.201800 0.952400
vn 0.499200 -0.045900 0.865300
vn 0.361200 0.292700 0.885400
vn 0.314500 -0.221500 0.923100
vn -0.627300 0.004700 0.778800
vn 0.233700 0.023000 0.972000
vn -0.127900 0.488100 0.863300
vn 0.216700 -0.238700 0.946600
vn 0.067500 0.379400 0.922800
vn -0.079500 -0.660200 0.746800
vn 0.362300 0.292600 0.884900
vn -0.361800 0.294100 0.884700
vn -0.000000 0.000000 1.000000
vn -0.645300 -0.205500 0.735800
vn 0.819900 -0.169700 0.546700
vn -0.007800 0.999900 0.009100
vn -0.262400 0.049600 0.963700
vn -0.499200 -0.045900 0.865300
vn -0.360400 0.294100 0.885200
vn -0.084000 0.397300 0.913800
vn -0.270800 0.312100 0.910600
vn -0.444500 -0.004800 0.895800
vn -0.391400 0.112800 0.913300
vn 0.445800 -0.007300 0.895100
vn -0.314500 -0.221500 0.923100
vn -0.402100 -0.037900 0.914800
vn 0.313600 0.045500 0.948500
vn 0.331500 0.047100 0.942300
vn 0.402100 -0.037900 0.914800
vn 0.627400 0.004800 0.778600
vn -0.233700 0.023000 0.972000
vn 0.234500 -0.155900 0.959500
vn 0.002700 0.000000 1.000000
vn -0.820400 -0.170100 0.545900
vn 0.645000 -0.204900 0.736200
vn 0.006100 -1.000000 0.007600
vn 0.008300 0.999900 0.009400
vn 0.650800 -0.001100 0.759300
vn -0.006600 -0.999900 0.007900
vn -0.650800 -0.000100 0.759300
vn -0.127900 -0.488100 0.863300
vn 0.313600 -0.045500 0.948500
vn 0.262400 -0.049600 0.963700
vn 0.228400 0.201800 0.952400
vn 0.499200 0.045900 0.865300
vn 0.360400 -0.294100 0.885200
vn 0.084000 -0.397300 0.913800
vn 0.270800 -0.312100 0.910600
vn 0.375400 -0.193800 0.906400
vn 0.444500 0.004800 0.895800
vn 0.358800 0.183800 0.915200
vn 0.391400 -0.112800 0.913300
vn -0.335000 0.297600 0.894000
vn -0.323200 -0.217300 0.921000
vn -0.445800 0.007300 0.895100
vn -0.346400 0.232100 0.908900
vn -0.406900 0.273600 0.871500
vn -0.104100 0.691500 0.714900
vn 0.331500 -0.047100 0.942300
vn 0.314500 0.221500 0.923100
vn 0.402100 0.037900 0.914800
vn -0.313600 -0.045500 0.948500
vn -0.262400 -0.049600 0.963700
vn -0.228400 0.201800 0.952400
vn -0.499200 0.045900 0.865300
vn -0.361200 -0.292700 0.885400
vn -0.331500 -0.047100 0.942300
vn -0.314500 0.221500 0.923100
vn -0.402100 0.037900 0.914800
vn 0.627300 -0.004700 0.778800
vn -0.627400 -0.004800 0.778600
vn -0.233700 -0.023000 0.972000
vn 0.233700 -0.023000 0.972000
vn 0.127900 -0.488100 0.863300
vn -0.216700 0.238700 0.946600
vn -0.067500 -0.379400 0.922800
vn -0.234500 0.155900 0.959500
vn 0.079500 0.660200 0.746800
vn -0.362300 -0.292600 0.884900
vn 0.361800 -0.294100 0.884700
vn -0.002700 0.000000 1.000000
vn 0.820400 0.170100 0.545900
vn 0.645300 0.205500 0.735800
vn -0.819900 0.169700 0.546700
vn -0.645000 0.204900 0.736200
vn -0.006100 1.000000 0.007600
vn -0.008300 -0.999900 0.009400
vn -0.650800 0.001100 0.759300
vn 0.007800 -0.999900 0.009100
vn 0.006600 0.999900 0.007900
vn 0.650800 0.000100 0.759300
vn 0.127900 0.488100 0.863300
usemtl mat1
f 3/1/1 5/2/1 6/3/1 4/4/1
f 7/5/2 8/6/2 6/3/2 5/2/2
f 11/7/3 12/8/3 13/9/3 10/10/3
f 12/8/4 14/11/4 15/12/4 13/9/4
f 23/13/5 20/14/5 18/15/5 24/16/5
f 24/16/6 18/15/6 16/17/6 25/18/6
f 25/18/7 16/17/7 14/19/7 26/20/7
f 11/21/8 28/22/8 27/23/8 12/24/8
f 29/25/9 3/26/9 2/27/9
f 7/28/10 5/29/10 30/30/10
f 36/31/11 38/32/11 39/33/11 37/34/11
f 38/32/12 40/35/12 39/33/12
f 32/36/13 29/25/13 2/27/13
f 41/37/14 44/38/14 45/39/14 46/40/14
f 35/41/15 30/30/15 29/25/15 32/36/15
f 30/30/16 5/29/16 3/26/16 29/25/16
f 42/42/17 41/37/17 47/43/17
f 48/44/18 49/45/18 40/35/18
f 51/46/19 40/47/19 50/48/19
f 9/49/20 31/50/20 11/21/20
f 31/50/21 52/51/21 11/21/21
f 53/52/22 28/22/22 11/21/22
f 40/47/23 51/46/23 54/53/23
f 52/51/24 40/47/24 54/53/24
f 45/54/25 44/55/25 55/56/25 56/57/25
f 52/58/26 54/59/26 57/60/26 58/61/26
f 53/62/27 52/58/27 58/61/27 59/63/27
f 44/55/28 43/64/28 60/65/28 55/56/28
f 1/66/29 2/67/29 3/1/29 4/4/29
f 9/68/30 10/10/30 8/6/30 7/5/30
f 11/7/31 10/10/31 9/68/31
f 14/11/32 16/69/32 17/70/32 15/12/32
f 18/71/33 19/72/33 17/70/33 16/69/33
f 20/73/34 21/74/34 19/72/34 18/71/34
f 22/75/35 21/74/35 20/73/35
f 22/75/36 20/73/36 23/76/36
f 26/20/37 14/19/37 12/24/37 27/23/37
f 31/50/38 9/49/38 7/28/38 30/30/38
f 32/77/39 2/78/39 1/79/39 33/80/39
f 34/81/40 35/82/40 32/77/40 33/80/40
f 34/81/41 36/31/41 37/34/41 35/82/41
f 35/41/42 37/83/42 30/30/42
f 37/83/43 39/84/43 31/50/43 30/30/43
f 41/37/44 42/42/44 43/85/44 44/38/44
f 38/32/45 48/44/45 40/35/45
f 40/47/46 49/86/46 50/48/46
f 31/50/47 39/84/47 40/47/47
f 31/50/48 40/47/48 52/51/48
f 52/51/49 53/52/49 11/21/49
f 57/60/50 56/57/50 55/56/50 58/61/50
f 55/56/51 60/65/51 59/63/51 58/61/51
f 41/37/52 61/87/52 47/43/52
f 62/66/53 63/67/53 64/1/53 65/4/53
f 64/1/54 66/2/54 67/3/54 65/4/54
f 68/5/55 69/6/55 67/3/55 66/2/55
f 70/68/56 71/10/56 69/6/56 68/5/56
f 72/7/57 71/10/57 70/68/57
f 72/7/58 73/8/58 74/9/58 71/10/58
f 73/8/59 75/11/59 76/12/59 74/9/59
f 75/11/60 77/69/60 78/70/60 76/12/60
f 79/71/61 80/72/61 78/70/61 77/69/61
f 81/73/62 82/74/62 80/72/62 79/71/62
f 83/75/63 82/74/63 81/73/63
f 83/75/64 81/73/64 84/76/64
f 84/13/65 81/14/65 79/15/65 85/16/65
f 85/16/66 79/15/66 77/17/66 86/18/66
f 86/18/67 77/17/67 75/19/67 87/20/67
f 87/20/68 75/19/68 73/24/68 88/23/68
f 72/21/69 89/22/69 88/23/69 73/24/69
f 90/25/70 64/26/70 63/27/70
f 68/28/71 66/29/71 91/30/71
f 92/50/72 70/49/72 68/28/72 91/30/72
f 93/77/73 63/78/73 62/79/73 94/80/73
f 95/81/74 96/82/74 93/77/74 94/80/74
f 95/81/75 97/31/75 98/34/75 96/82/75
f 97/31/76 99/32/76 100/33/76 98/34/76
f 99/32/77 101/35/77 100/33/77
f 93/36/78 90/25/78 63/27/78
f 96/41/79 98/83/79 91/30/79
f 98/83/80 100/84/80 92/50/80 91/30/80
f 41/37/81 102/42/81 103/85/81 104/38/81
f 41/37/82 104/38/82 105/39/82 61/40/82
f 96/41/83 91/30/83 90/25/83 93/36/83
f 91/30/84 66/29/84 64/26/84 90/25/84
f 102/42/85 41/37/85 106/43/85
f 107/44/86 108/45/86 101/35/86
f 99/32/87 107/44/87 101/35/87
f 101/47/88 108/86/88 109/48/88
f 110/46/89 101/47/89 109/48/89
f 92/50/90 100/84/90 101/47/90
f 70/49/91 92/50/91 72/21/91
f 92/50/92 101/47/92 111/51/92
f 92/50/21 111/51/21 72/21/21
f 112/52/93 89/22/93 72/21/93
f 111/51/94 112/52/94 72/21/94
f 101/47/95 110/46/95 113/53/95
f 111/51/96 101/47/96 113/53/96
f 105/54/97 104/55/97 114/56/97 115/57/97
f 111/58/98 113/59/98 116/60/98 117/61/98
f 116/60/99 115/57/99 114/56/99 117/61/99
f 112/62/100 111/58/100 117/61/100 118/63/100
f 104/55/101 103/64/101 119/65/101 114/56/101
f 114/56/102 119/65/102 118/63/102 117/61/102
f 41/37/103 46/87/103 106/43/103
f 120/1/104 121/67/104 1/66/104 4/4/104
f 6/3/105 8/6/105 123/5/105 122/2/105
f 17/70/106 128/69/106 127/11/106 15/12/106
f 19/72/107 21/74/107 130/73/107 129/71/107
f 130/73/108 22/75/108 23/76/108
f 129/15/109 130/14/109 23/13/109 24/16/109
f 127/19/110 128/17/110 25/18/110 26/20/110
f 126/24/111 127/19/111 26/20/111 27/23/111
f 27/23/112 28/22/112 125/21/112 126/24/112
f 120/26/113 131/25/113 121/27/113
f 134/77/114 135/82/114 34/81/114 33/80/114
f 136/34/115 36/31/115 34/81/115 135/82/115
f 137/33/116 38/32/116 36/31/116 136/34/116
f 138/35/117 38/32/117 137/33/117
f 136/83/118 135/41/118 132/30/118
f 43/85/119 42/42/119 139/37/119 140/38/119
f 131/25/120 132/30/120 135/41/120 134/36/120
f 139/37/121 42/42/121 47/43/121
f 49/45/122 48/44/122 138/35/122
f 48/44/123 38/32/123 138/35/123
f 138/47/124 51/46/124 50/48/124
f 137/84/125 133/50/125 138/47/125
f 133/50/126 124/49/126 125/21/126
f 141/51/127 133/50/127 125/21/127
f 53/52/128 141/51/128 125/21/128
f 51/46/129 138/47/129 54/53/129
f 143/61/130 141/58/130 53/62/130 59/63/130
f 6/3/131 122/2/131 120/1/131 4/4/131
f 8/6/132 10/10/132 124/68/132 123/5/132
f 10/10/133 125/7/133 124/68/133
f 13/9/134 126/8/134 125/7/134 10/10/134
f 15/12/135 127/11/135 126/8/135 13/9/135
f 17/70/136 19/72/136 129/71/136 128/69/136
f 21/74/137 22/75/137 130/73/137
f 128/17/138 129/15/138 24/16/138 25/18/138
f 122/29/139 123/28/139 132/30/139
f 123/28/140 124/49/140 133/50/140 132/30/140
f 1/79/141 121/78/141 134/77/141 33/80/141
f 131/25/142 134/36/142 121/27/142
f 133/50/143 137/84/143 136/83/143 132/30/143
f 45/39/144 140/38/144 139/37/144 46/40/144
f 120/26/145 122/29/145 132/30/145 131/25/145
f 49/86/146 138/47/146 50/48/146
f 138/47/147 133/50/147 141/51/147
f 28/22/148 53/52/148 125/21/148
f 138/47/149 141/51/149 54/53/149
f 142/56/150 140/55/150 45/54/150 56/57/150
f 57/60/151 54/59/151 141/58/151 143/61/151
f 142/56/152 56/57/152 57/60/152 143/61/152
f 60/65/153 43/64/153 140/55/153 142/56/153
f 59/63/154 60/65/154 142/56/154 143/61/154
f 61/87/155 139/37/155 47/43/155
f 144/1/156 145/67/156 62/66/156 65/4/156
f 67/3/157 146/2/157 144/1/157 65/4/157
f 67/3/158 69/6/158 147/5/158 146/2/158
f 69/6/159 71/10/159 148/68/159 147/5/159
f 71/10/160 149/7/160 148/68/160
f 74/9/161 150/8/161 149/7/161 71/10/161
f 76/12/162 151/11/162 150/8/162 74/9/162
f 78/70/163 152/69/163 151/11/163 76/12/163
f 78/70/164 80/72/164 153/71/164 152/69/164
f 80/72/165 82/74/165 154/73/165 153/71/165
f 82/74/166 83/75/166 154/73/166
f 154/73/167 83/75/167 84/76/167
f 153/15/168 154/14/168 84/13/168 85/16/168
f 152/17/169 153/15/169 85/16/169 86/18/169
f 151/19/170 152/17/170 86/18/170 87/20/170
f 150/24/171 151/19/171 87/20/171 88/23/171
f 88/23/172 89/22/172 149/21/172 150/24/172
f 144/26/173 155/25/173 145/27/173
f 146/29/174 147/28/174 156/30/174
f 147/28/175 148/49/175 157/50/175 156/30/175
f 62/79/176 145/78/176 158/77/176 94/80/176
f 158/77/177 159/82/177 95/81/177 94/80/177
f 160/34/178 97/31/178 95/81/178 159/82/178
f 161/33/179 99/32/179 97/31/179 160/34/179
f 162/35/180 99/32/180 161/33/180
f 155/25/181 158/36/181 145/27/181
f 160/83/182 159/41/182 156/30/182
f 157/50/183 161/84/183 160/83/183 156/30/183
f 103/85/184 102/42/184 139/37/184 163/38/184
f 105/39/185 163/38/185 139/37/185 61/40/185
f 155/25/186 156/30/186 159/41/186 158/36/186
f 144/26/187 146/29/187 156/30/187 155/25/187
f 139/37/188 102/42/188 106/43/188
f 108/45/189 107/44/189 162/35/189
f 107/44/190 99/32/190 162/35/190
f 108/86/191 162/47/191 109/48/191
f 162/47/192 110/46/192 109/48/192
f 161/84/193 157/50/193 162/47/193
f 157/50/194 148/49/194 149/21/194
f 162/47/195 157/50/195 164/51/195
f 164/51/127 157/50/127 149/21/127
f 89/22/196 112/52/196 149/21/196
f 112/52/197 164/51/197 149/21/197
f 110/46/198 162/47/198 113/53/198
f 162/47/199 164/51/199 113/53/199
f 165/56/200 163/55/200 105/54/200 115/57/200
f 116/60/201 113/59/201 164/58/201 166/61/201
f 165/56/202 115/57/202 116/60/202 166/61/202
f 166/61/203 164/58/203 112/62/203 118/63/203
f 119/65/204 103/64/204 163/55/204 165/56/204
f 118/63/205 119/65/205 165/56/205 166/61/205
f 46/87/206 139/37/206 106/43/206
